<?xml version="1.0" encoding="UTF-8" standalone="no"?>
<!DOCTYPE svg PUBLIC "-//W3C//DTD SVG 1.1//EN"
 "http://www.w3.org/Graphics/SVG/1.1/DTD/svg11.dtd">
<!-- Generated by graphviz version 2.29.0 (20120125.1916)
 -->
<!-- Title: G Pages: 1 -->
<svg width="510pt" height="392pt"
 viewBox="0.00 0.00 510.00 392.00" xmlns="http://www.w3.org/2000/svg" xmlns:xlink="http://www.w3.org/1999/xlink">
<g id="graph1" class="graph" transform="scale(1 1) rotate(0) translate(4 388)">
<title>G</title>
<polygon fill="blue" stroke="blue" points="-4,5 -4,-388 507,-388 507,5 -4,5"/>
<g id="graph2" class="cluster"><title>cluster_1</title>
<polygon fill="blue" stroke="black" points="49,-291 49,-376 489,-376 489,-291 49,-291"/>
<text text-anchor="middle" x="269" y="-360.8" font-family="Times,serif" font-size="14.00" fill="white">X11 Colors</text>
</g>
<g id="graph3" class="cluster"><title>cluster_2</title>
<polygon fill="blue" stroke="black" points="49,-198 49,-283 489,-283 489,-198 49,-198"/>
<text text-anchor="middle" x="269" y="-267.8" font-family="Times,serif" font-size="14.00" fill="white">SVG Colors</text>
</g>
<g id="graph4" class="cluster"><title>cluster_3</title>
<polygon fill="blue" stroke="black" points="8,-103 8,-190 494,-190 494,-103 8,-103"/>
<text text-anchor="middle" x="251" y="-174.8" font-family="Times,serif" font-size="14.00" fill="white">Brewer &#45; accent</text>
</g>
<g id="graph5" class="cluster"><title>cluster_4</title>
<polygon fill="blue" stroke="black" points="8,-8 8,-95 494,-95 494,-8 8,-8"/>
<text text-anchor="middle" x="251" y="-79.8" font-family="Times,serif" font-size="14.00" fill="white">Brewer &#45; blues</text>
</g>
<!-- n5 -->
<g id="node2" class="node"><title>n5</title>
<defs>
<linearGradient id="l_0" gradientUnits="userSpaceOnUse" x1="427" y1="-322" x2="481" y2="-322" >
<stop offset="0" style="stop-color:antiquewhite;stop-opacity:1.;"/>
<stop offset="1" style="stop-color:aquamarine;stop-opacity:1.;"/>
</linearGradient>
</defs>
<polygon fill="url(#l_0)" stroke="black" points="481,-340 427,-340 427,-304 481,-304 481,-340"/>
<text text-anchor="middle" x="454" y="-318.3" font-family="Times,serif" font-size="14.00">n5</text>
</g>
<!-- n4 -->
<g id="node3" class="node"><title>n4</title>
<defs>
<linearGradient id="l_1" gradientUnits="userSpaceOnUse" x1="355" y1="-322" x2="409" y2="-322" >
<stop offset="0" style="stop-color:#8b7d6b;stop-opacity:1.;"/>
<stop offset="1" style="stop-color:#0000ee;stop-opacity:1.;"/>
</linearGradient>
</defs>
<ellipse fill="url(#l_1)" stroke="black" cx="382" cy="-322" rx="27" ry="18"/>
<text text-anchor="middle" x="382" y="-318.3" font-family="Times,serif" font-size="14.00">n4</text>
</g>
<!-- n3 -->
<g id="node4" class="node"><title>n3</title>
<defs>
<linearGradient id="l_2" gradientUnits="userSpaceOnUse" x1="298.753" y1="-322" x2="337.247" y2="-322" >
<stop offset="0" style="stop-color:#98f5ff;stop-opacity:1.;"/>
<stop offset="1" style="stop-color:#ff7f24;stop-opacity:1.;"/>
</linearGradient>
</defs>
<ellipse fill="url(#l_2)" stroke="black" cx="318" cy="-322" rx="19.2474" ry="19.4965"/>
<text text-anchor="middle" x="318" y="-318.3" font-family="Times,serif" font-size="14.00">n3</text>
</g>
<!-- n9 -->
<g id="node11" class="node"><title>n9</title>
<defs>
<linearGradient id="l_3" gradientUnits="userSpaceOnUse" x1="298.753" y1="-229" x2="337.247" y2="-229" >
<stop offset="0" style="stop-color:deepskyblue;stop-opacity:1.;"/>
<stop offset="1" style="stop-color:gold;stop-opacity:1.;"/>
</linearGradient>
</defs>
<ellipse fill="url(#l_3)" stroke="black" cx="318" cy="-229" rx="19.2474" ry="19.4965"/>
<text text-anchor="middle" x="318" y="-225.3" font-family="Times,serif" font-size="14.00">n9</text>
</g>
<!-- n3&#45;&gt;n9 -->
<g id="edge6" class="edge"><title>n3&#45;&gt;n9</title>
<path fill="none" stroke="black" d="M318,-302.145C318,-289.616 318,-272.926 318,-258.755"/>
<polygon fill="black" stroke="black" points="321.5,-258.52 318,-248.52 314.5,-258.52 321.5,-258.52"/>
</g>
<!-- n2 -->
<g id="node5" class="node"><title>n2</title>
<defs>
<linearGradient id="l_4" gradientUnits="userSpaceOnUse" x1="225.639" y1="-322" x2="280.361" y2="-322" >
<stop offset="0" style="stop-color:crimson;stop-opacity:1.;"/>
<stop offset="1" style="stop-color:#008b8b;stop-opacity:1.;"/>
</linearGradient>
</defs>
<polygon fill="url(#l_4)" stroke="black" points="253,-340 225.639,-322 253,-304 280.361,-322 253,-340"/>
<text text-anchor="middle" x="253" y="-318.3" font-family="Times,serif" font-size="14.00">n2</text>
</g>
<!-- n1 -->
<g id="node6" class="node"><title>n1</title>
<defs>
<linearGradient id="l_5" gradientUnits="userSpaceOnUse" x1="129.505" y1="-327.75" x2="206.495" y2="-327.75" >
<stop offset="0" style="stop-color:#00b2ee;stop-opacity:1.;"/>
<stop offset="1" style="stop-color:firebrick;stop-opacity:1.;"/>
</linearGradient>
</defs>
<polygon fill="url(#l_5)" stroke="black" points="168,-345 129.505,-310.5 206.495,-310.5 168,-345"/>
<text text-anchor="middle" x="168" y="-318.3" font-family="Times,serif" font-size="14.00">n1</text>
</g>
<!-- n0 -->
<g id="node7" class="node"><title>n0</title>
<defs>
<linearGradient id="l_6" gradientUnits="userSpaceOnUse" x1="57" y1="-323.719" x2="111" y2="-323.719" >
<stop offset="0" style="stop-color:#3d3d3d;stop-opacity:1.;"/>
<stop offset="1" style="stop-color:#e0e0e0;stop-opacity:1.;"/>
</linearGradient>
</defs>
<polygon fill="url(#l_6)" stroke="black" points="111,-327.562 84,-340 57,-327.562 67.3131,-307.438 100.687,-307.438 111,-327.562"/>
<text text-anchor="middle" x="84" y="-318.3" font-family="Times,serif" font-size="14.00">n0</text>
</g>
<!-- n11 -->
<g id="node9" class="node"><title>n11</title>
<defs>
<linearGradient id="l_7" gradientUnits="userSpaceOnUse" x1="427" y1="-229" x2="481" y2="-229" >
<stop offset="0" style="stop-color:bisque;stop-opacity:1.;"/>
<stop offset="1" style="stop-color:brown;stop-opacity:1.;"/>
</linearGradient>
</defs>
<polygon fill="url(#l_7)" stroke="black" points="481,-247 427,-247 427,-211 481,-211 481,-247"/>
<text text-anchor="middle" x="454" y="-225.3" font-family="Times,serif" font-size="14.00">n11</text>
</g>
<!-- n10 -->
<g id="node10" class="node"><title>n10</title>
<defs>
<linearGradient id="l_8" gradientUnits="userSpaceOnUse" x1="355" y1="-229" x2="409" y2="-229" >
<stop offset="0" style="stop-color:green;stop-opacity:1.;"/>
<stop offset="1" style="stop-color:darkorchid;stop-opacity:1.;"/>
</linearGradient>
</defs>
<ellipse fill="url(#l_8)" stroke="black" cx="382" cy="-229" rx="27" ry="18"/>
<text text-anchor="middle" x="382" y="-225.3" font-family="Times,serif" font-size="14.00">n10</text>
</g>
<!-- n15 -->
<g id="node18" class="node"><title>n15</title>
<defs>
<linearGradient id="l_9" gradientUnits="userSpaceOnUse" x1="293.928" y1="-135" x2="342.072" y2="-135" >
<stop offset="0" style="stop-color:#7fc97f;stop-opacity:1.;"/>
<stop offset="1" style="stop-color:#386cb0;stop-opacity:1.;"/>
</linearGradient>
</defs>
<ellipse fill="url(#l_9)" stroke="black" cx="318" cy="-135" rx="24.0718" ry="24.0958"/>
<text text-anchor="middle" x="318" y="-131.3" font-family="Times,serif" font-size="14.00">n15</text>
</g>
<!-- n9&#45;&gt;n15 -->
<g id="edge7" class="edge"><title>n9&#45;&gt;n15</title>
<path fill="none" stroke="black" d="M318,-209.382C318,-197.948 318,-182.964 318,-169.519"/>
<polygon fill="black" stroke="black" points="321.5,-169.163 318,-159.164 314.5,-169.164 321.5,-169.163"/>
</g>
<!-- n8 -->
<g id="node12" class="node"><title>n8</title>
<defs>
<linearGradient id="l_10" gradientUnits="userSpaceOnUse" x1="225.639" y1="-229" x2="280.361" y2="-229" >
<stop offset="0" style="stop-color:lightseagreen;stop-opacity:1.;"/>
<stop offset="1" style="stop-color:orangered;stop-opacity:1.;"/>
</linearGradient>
</defs>
<polygon fill="url(#l_10)" stroke="black" points="253,-247 225.639,-229 253,-211 280.361,-229 253,-247"/>
<text text-anchor="middle" x="253" y="-225.3" font-family="Times,serif" font-size="14.00">n8</text>
</g>
<!-- n7 -->
<g id="node13" class="node"><title>n7</title>
<defs>
<linearGradient id="l_11" gradientUnits="userSpaceOnUse" x1="129.505" y1="-234.75" x2="206.495" y2="-234.75" >
<stop offset="0" style="stop-color:turquoise;stop-opacity:1.;"/>
<stop offset="1" style="stop-color:salmon;stop-opacity:1.;"/>
</linearGradient>
</defs>
<polygon fill="url(#l_11)" stroke="black" points="168,-252 129.505,-217.5 206.495,-217.5 168,-252"/>
<text text-anchor="middle" x="168" y="-225.3" font-family="Times,serif" font-size="14.00">n7</text>
</g>
<!-- n6 -->
<g id="node14" class="node"><title>n6</title>
<defs>
<linearGradient id="l_12" gradientUnits="userSpaceOnUse" x1="57" y1="-230.719" x2="111" y2="-230.719" >
<stop offset="0" style="stop-color:snow;stop-opacity:1.;"/>
<stop offset="1" style="stop-color:black;stop-opacity:1.;"/>
</linearGradient>
</defs>
<polygon fill="url(#l_12)" stroke="black" points="111,-234.562 84,-247 57,-234.562 67.3131,-214.438 100.687,-214.438 111,-234.562"/>
<text text-anchor="middle" x="84" y="-225.3" font-family="Times,serif" font-size="14.00">n6</text>
</g>
<!-- n17 -->
<g id="node16" class="node"><title>n17</title>
<defs>
<linearGradient id="l_13" gradientUnits="userSpaceOnUse" x1="432" y1="-135" x2="486" y2="-135" >
<stop offset="0" style="stop-color:#7fc97f;stop-opacity:1.;"/>
<stop offset="1" style="stop-color:#fdc086;stop-opacity:1.;"/>
</linearGradient>
</defs>
<polygon fill="url(#l_13)" stroke="black" points="486,-153 432,-153 432,-117 486,-117 486,-153"/>
<text text-anchor="middle" x="459" y="-131.3" font-family="Times,serif" font-size="14.00">n17</text>
</g>
<!-- n16 -->
<g id="node17" class="node"><title>n16</title>
<defs>
<linearGradient id="l_14" gradientUnits="userSpaceOnUse" x1="360" y1="-135" x2="414" y2="-135" >
<stop offset="0" style="stop-color:#7fc97f;stop-opacity:1.;"/>
<stop offset="1" style="stop-color:#ffff99;stop-opacity:1.;"/>
</linearGradient>
</defs>
<ellipse fill="url(#l_14)" stroke="black" cx="387" cy="-135" rx="27" ry="18"/>
<text text-anchor="middle" x="387" y="-131.3" font-family="Times,serif" font-size="14.00">n16</text>
</g>
<!-- n21 -->
<g id="node25" class="node"><title>n21</title>
<defs>
<linearGradient id="l_15" gradientUnits="userSpaceOnUse" x1="293.928" y1="-40" x2="342.072" y2="-40" >
<stop offset="0" style="stop-color:#eff3ff;stop-opacity:1.;"/>
<stop offset="1" style="stop-color:#3182bd;stop-opacity:1.;"/>
</linearGradient>
</defs>
<ellipse fill="url(#l_15)" stroke="black" cx="318" cy="-40" rx="24.0718" ry="24.0958"/>
<text text-anchor="middle" x="318" y="-36.3" font-family="Times,serif" font-size="14.00">n21</text>
</g>
<!-- n15&#45;&gt;n21 -->
<g id="edge8" class="edge"><title>n15&#45;&gt;n21</title>
<path fill="none" stroke="black" d="M318,-110.532C318,-99.5449 318,-86.2625 318,-74.263"/>
<polygon fill="black" stroke="black" points="321.5,-74.1381 318,-64.1382 314.5,-74.1382 321.5,-74.1381"/>
</g>
<!-- n14 -->
<g id="node19" class="node"><title>n14</title>
<defs>
<linearGradient id="l_16" gradientUnits="userSpaceOnUse" x1="207.987" y1="-135" x2="276.013" y2="-135" >
<stop offset="0" style="stop-color:#7fc97f;stop-opacity:1.;"/>
<stop offset="1" style="stop-color:#f0027f;stop-opacity:1.;"/>
</linearGradient>
</defs>
<polygon fill="url(#l_16)" stroke="black" points="242,-153 207.987,-135 242,-117 276.013,-135 242,-153"/>
<text text-anchor="middle" x="242" y="-131.3" font-family="Times,serif" font-size="14.00">n14</text>
</g>
<!-- n13 -->
<g id="node20" class="node"><title>n13</title>
<defs>
<linearGradient id="l_17" gradientUnits="userSpaceOnUse" x1="93.8563" y1="-140.75" x2="190.144" y2="-140.75" >
<stop offset="0" style="stop-color:#7fc97f;stop-opacity:1.;"/>
<stop offset="1" style="stop-color:#bf5b17;stop-opacity:1.;"/>
</linearGradient>
</defs>
<polygon fill="url(#l_17)" stroke="black" points="142,-158 93.8563,-123.5 190.144,-123.5 142,-158"/>
<text text-anchor="middle" x="142" y="-131.3" font-family="Times,serif" font-size="14.00">n13</text>
</g>
<!-- n12 -->
<g id="node21" class="node"><title>n12</title>
<defs>
<linearGradient id="l_18" gradientUnits="userSpaceOnUse" x1="16.4139" y1="-136.719" x2="75.5861" y2="-136.719" >
<stop offset="0" style="stop-color:#7fc97f;stop-opacity:1.;"/>
<stop offset="1" style="stop-color:#666666;stop-opacity:1.;"/>
</linearGradient>
</defs>
<polygon fill="url(#l_18)" stroke="black" points="75.5861,-140.562 46,-153 16.4139,-140.562 27.7148,-120.438 64.2852,-120.438 75.5861,-140.562"/>
<text text-anchor="middle" x="46" y="-131.3" font-family="Times,serif" font-size="14.00">n12</text>
</g>
<!-- n23 -->
<g id="node23" class="node"><title>n23</title>
<defs>
<linearGradient id="l_19" gradientUnits="userSpaceOnUse" x1="432" y1="-40" x2="486" y2="-40" >
<stop offset="0" style="stop-color:#deebf7;stop-opacity:1.;"/>
<stop offset="1" style="stop-color:#9ecae1;stop-opacity:1.;"/>
</linearGradient>
</defs>
<polygon fill="url(#l_19)" stroke="black" points="486,-58 432,-58 432,-22 486,-22 486,-58"/>
<text text-anchor="middle" x="459" y="-36.3" font-family="Times,serif" font-size="14.00">n23</text>
</g>
<!-- n22 -->
<g id="node24" class="node"><title>n22</title>
<defs>
<linearGradient id="l_20" gradientUnits="userSpaceOnUse" x1="360" y1="-40" x2="414" y2="-40" >
<stop offset="0" style="stop-color:#eff3ff;stop-opacity:1.;"/>
<stop offset="1" style="stop-color:#6baed6;stop-opacity:1.;"/>
</linearGradient>
</defs>
<ellipse fill="url(#l_20)" stroke="black" cx="387" cy="-40" rx="27" ry="18"/>
<text text-anchor="middle" x="387" y="-36.3" font-family="Times,serif" font-size="14.00">n22</text>
</g>
<!-- n20 -->
<g id="node26" class="node"><title>n20</title>
<defs>
<linearGradient id="l_21" gradientUnits="userSpaceOnUse" x1="207.987" y1="-40" x2="276.013" y2="-40" >
<stop offset="0" style="stop-color:#eff3ff;stop-opacity:1.;"/>
<stop offset="1" style="stop-color:#3182bd;stop-opacity:1.;"/>
</linearGradient>
</defs>
<polygon fill="url(#l_21)" stroke="black" points="242,-58 207.987,-40 242,-22 276.013,-40 242,-58"/>
<text text-anchor="middle" x="242" y="-36.3" font-family="Times,serif" font-size="14.00">n20</text>
</g>
<!-- n19 -->
<g id="node27" class="node"><title>n19</title>
<defs>
<linearGradient id="l_22" gradientUnits="userSpaceOnUse" x1="93.8563" y1="-45.75" x2="190.144" y2="-45.75" >
<stop offset="0" style="stop-color:#eff3ff;stop-opacity:1.;"/>
<stop offset="1" style="stop-color:#2171b5;stop-opacity:1.;"/>
</linearGradient>
</defs>
<polygon fill="url(#l_22)" stroke="black" points="142,-63 93.8563,-28.5 190.144,-28.5 142,-63"/>
<text text-anchor="middle" x="142" y="-36.3" font-family="Times,serif" font-size="14.00">n19</text>
</g>
<!-- n18 -->
<g id="node28" class="node"><title>n18</title>
<defs>
<linearGradient id="l_23" gradientUnits="userSpaceOnUse" x1="16.4139" y1="-41.7188" x2="75.5861" y2="-41.7188" >
<stop offset="0" style="stop-color:#f7fbff;stop-opacity:1.;"/>
<stop offset="1" style="stop-color:#2171b5;stop-opacity:1.;"/>
</linearGradient>
</defs>
<polygon fill="url(#l_23)" stroke="black" points="75.5861,-45.5623 46,-58 16.4139,-45.5623 27.7148,-25.4377 64.2852,-25.4377 75.5861,-45.5623"/>
<text text-anchor="middle" x="46" y="-36.3" font-family="Times,serif" font-size="14.00">n18</text>
</g>
</g>
</svg>
