<?xml version="1.0" encoding="UTF-8" standalone="no"?>
<!DOCTYPE svg PUBLIC "-//W3C//DTD SVG 1.1//EN"
 "http://www.w3.org/Graphics/SVG/1.1/DTD/svg11.dtd">
<!-- Generated by graphviz version 2.29.0 (20120125.1916)
 -->
<!-- Title: G Pages: 1 -->
<svg width="265pt" height="1103pt"
 viewBox="0.00 0.00 265.00 1103.00" xmlns="http://www.w3.org/2000/svg" xmlns:xlink="http://www.w3.org/1999/xlink">
<g id="graph1" class="graph" transform="scale(1 1) rotate(0) translate(4 1099)">
<title>G</title>
<polygon fill="blue" stroke="blue" points="-4,5 -4,-1099 262,-1099 262,5 -4,5"/>
<g id="graph2" class="cluster"><title>cluster_1</title>
<polygon fill="blue" stroke="black" points="8,-8 8,-1087 249,-1087 249,-8 8,-8"/>
<text text-anchor="middle" x="128.5" y="-1071.8" font-family="Times,serif" font-size="14.00" fill="white">Shape Variations</text>
</g>
<!-- n27 -->
<g id="node2" class="node"><title>n27</title>
<defs>
<linearGradient id="l_0" gradientUnits="userSpaceOnUse" x1="175" y1="-106" x2="229" y2="-106" >
<stop offset="0" style="stop-color:bisque;stop-opacity:1.;"/>
<stop offset="1" style="stop-color:brown;stop-opacity:1.;"/>
</linearGradient>
</defs>
<polygon fill="url(#l_0)" stroke="black" points="229,-124 175,-124 175,-88 229,-88 229,-124"/>
<text text-anchor="middle" x="202" y="-102.3" font-family="Times,serif" font-size="14.00">n27</text>
</g>
<!-- n26 -->
<g id="node3" class="node"><title>n26</title>
<defs>
<linearGradient id="l_1" gradientUnits="userSpaceOnUse" x1="175" y1="-178" x2="229" y2="-178" >
<stop offset="0" style="stop-color:bisque;stop-opacity:1.;"/>
<stop offset="1" style="stop-color:brown;stop-opacity:1.;"/>
</linearGradient>
</defs>
<ellipse fill="url(#l_1)" stroke="black" cx="202" cy="-178" rx="27" ry="18"/>
<text text-anchor="middle" x="202" y="-174.3" font-family="Times,serif" font-size="14.00">n26</text>
</g>
<!-- n26&#45;&gt;n27 -->
<g id="edge28" class="edge"><title>n26&#45;&gt;n27</title>
<path fill="none" stroke="black" d="M202,-159.697C202,-151.983 202,-142.712 202,-134.112"/>
<polygon fill="black" stroke="black" points="205.5,-134.104 202,-124.104 198.5,-134.104 205.5,-134.104"/>
</g>
<!-- n25 -->
<g id="node4" class="node"><title>n25</title>
<defs>
<linearGradient id="l_2" gradientUnits="userSpaceOnUse" x1="173.386" y1="-255" x2="230.614" y2="-255" >
<stop offset="0" style="stop-color:bisque;stop-opacity:1.;"/>
<stop offset="1" style="stop-color:brown;stop-opacity:1.;"/>
</linearGradient>
</defs>
<polygon fill="url(#l_2)" stroke="black" points="204.648,-237.049 206.401,-237.148 208.136,-237.295 209.846,-237.491 211.523,-237.735 213.162,-238.027 214.755,-238.364 216.297,-238.748 217.782,-239.176 219.203,-239.647 220.557,-240.161 221.838,-240.715 223.042,-241.308 224.165,-241.939 225.203,-242.605 226.155,-243.306 227.018,-244.039 227.789,-244.801 228.468,-245.592 229.053,-246.408 229.545,-247.248 229.942,-248.109 230.247,-248.989 230.46,-249.886 230.581,-250.797 230.614,-251.719 230.56,-252.65 230.422,-253.587 230.202,-254.529 229.903,-255.471 229.529,-256.413 229.084,-257.35 228.57,-258.281 227.992,-259.203 227.353,-260.114 226.658,-261.011 225.909,-261.891 225.112,-262.752 224.27,-263.592 223.386,-264.408 222.464,-265.199 221.508,-265.961 220.522,-266.694 219.507,-267.395 218.469,-268.061 217.408,-268.692 216.328,-269.285 215.232,-269.839 214.121,-270.353 212.998,-270.824 211.865,-271.252 210.722,-271.636 209.573,-271.973 208.417,-272.265 207.256,-272.509 206.092,-272.705 204.925,-272.852 203.756,-272.951 202.585,-273 201.415,-273 200.244,-272.951 199.075,-272.852 197.908,-272.705 196.744,-272.509 195.583,-272.265 194.427,-271.973 193.278,-271.636 192.135,-271.252 191.002,-270.824 189.879,-270.353 188.768,-269.839 187.672,-269.285 186.592,-268.692 185.531,-268.061 184.493,-267.395 183.478,-266.694 182.492,-265.961 181.536,-265.199 180.614,-264.408 179.73,-263.592 178.888,-262.752 178.091,-261.891 177.342,-261.011 176.647,-260.114 176.008,-259.203 175.43,-258.281 174.916,-257.35 174.471,-256.413 174.097,-255.471 173.798,-254.529 173.578,-253.587 173.44,-252.65 173.386,-251.719 173.419,-250.797 173.54,-249.886 173.753,-248.989 174.058,-248.109 174.455,-247.248 174.947,-246.408 175.532,-245.592 176.211,-244.801 176.982,-244.039 177.845,-243.306 178.797,-242.605 179.835,-241.939 180.958,-241.308 182.162,-240.715 183.443,-240.161 184.797,-239.647 186.218,-239.176 187.703,-238.748 189.245,-238.364 190.838,-238.027 192.477,-237.735 194.154,-237.491 195.864,-237.295 197.599,-237.148 199.352,-237.049 201.116,-237 202.884,-237 204.648,-237.049"/>
<text text-anchor="middle" x="202" y="-251.3" font-family="Times,serif" font-size="14.00">n25</text>
</g>
<!-- n25&#45;&gt;n26 -->
<g id="edge27" class="edge"><title>n25&#45;&gt;n26</title>
<path fill="none" stroke="black" d="M202,-236.981C202,-227.936 202,-216.597 202,-206.351"/>
<polygon fill="black" stroke="black" points="205.5,-206.211 202,-196.211 198.5,-206.211 205.5,-206.211"/>
</g>
<!-- n24 -->
<g id="node5" class="node"><title>n24</title>
<defs>
<linearGradient id="l_3" gradientUnits="userSpaceOnUse" x1="167.987" y1="-332" x2="236.013" y2="-332" >
<stop offset="0" style="stop-color:bisque;stop-opacity:1.;"/>
<stop offset="1" style="stop-color:brown;stop-opacity:1.;"/>
</linearGradient>
</defs>
<polygon fill="url(#l_3)" stroke="black" points="221.864,-350 182.136,-350 167.987,-314 236.013,-314 221.864,-350"/>
<text text-anchor="middle" x="202" y="-328.3" font-family="Times,serif" font-size="14.00">n24</text>
</g>
<!-- n24&#45;&gt;n25 -->
<g id="edge26" class="edge"><title>n24&#45;&gt;n25</title>
<path fill="none" stroke="black" d="M202,-313.981C202,-304.936 202,-293.597 202,-283.351"/>
<polygon fill="black" stroke="black" points="205.5,-283.211 202,-273.211 198.5,-283.211 205.5,-283.211"/>
</g>
<!-- n23 -->
<g id="node6" class="node"><title>n23</title>
<defs>
<linearGradient id="l_4" gradientUnits="userSpaceOnUse" x1="167.109" y1="-404" x2="236.891" y2="-404" >
<stop offset="0" style="stop-color:bisque;stop-opacity:1.;"/>
<stop offset="1" style="stop-color:brown;stop-opacity:1.;"/>
</linearGradient>
</defs>
<polygon fill="url(#l_4)" stroke="black" points="236.891,-422 181.387,-422 167.109,-386 222.613,-386 236.891,-422"/>
<text text-anchor="middle" x="202" y="-400.3" font-family="Times,serif" font-size="14.00">n23</text>
</g>
<!-- n23&#45;&gt;n24 -->
<g id="edge25" class="edge"><title>n23&#45;&gt;n24</title>
<path fill="none" stroke="black" d="M202,-385.697C202,-377.983 202,-368.712 202,-360.112"/>
<polygon fill="black" stroke="black" points="205.5,-360.104 202,-350.104 198.5,-360.104 205.5,-360.104"/>
</g>
<!-- n22 -->
<g id="node7" class="node"><title>n22</title>
<defs>
<linearGradient id="l_5" gradientUnits="userSpaceOnUse" x1="172.414" y1="-483.719" x2="231.586" y2="-483.719" >
<stop offset="0" style="stop-color:bisque;stop-opacity:1.;"/>
<stop offset="1" style="stop-color:brown;stop-opacity:1.;"/>
</linearGradient>
</defs>
<polygon fill="url(#l_5)" stroke="black" points="231.586,-487.562 202,-500 172.414,-487.562 172.441,-467.438 231.559,-467.438 231.586,-487.562"/>
<text text-anchor="middle" x="202" y="-478.3" font-family="Times,serif" font-size="14.00">n22</text>
</g>
<!-- n22&#45;&gt;n23 -->
<g id="edge24" class="edge"><title>n22&#45;&gt;n23</title>
<path fill="none" stroke="black" d="M202,-467.413C202,-457.737 202,-444.399 202,-432.536"/>
<polygon fill="black" stroke="black" points="205.5,-432.204 202,-422.204 198.5,-432.204 205.5,-432.204"/>
</g>
<!-- n21 -->
<g id="node8" class="node"><title>n21</title>
<defs>
<linearGradient id="l_6" gradientUnits="userSpaceOnUse" x1="174" y1="-564" x2="228" y2="-564" >
<stop offset="0" style="stop-color:bisque;stop-opacity:1.;"/>
<stop offset="1" style="stop-color:brown;stop-opacity:1.;"/>
</linearGradient>
</defs>
<polygon fill="url(#l_6)" stroke="black" points="228,-556.544 228,-571.456 212.184,-582 189.816,-582 174,-571.456 174,-556.544 189.816,-546 212.184,-546 228,-556.544"/>
<text text-anchor="middle" x="201" y="-560.3" font-family="Times,serif" font-size="14.00">n21</text>
</g>
<!-- n21&#45;&gt;n22 -->
<g id="edge23" class="edge"><title>n21&#45;&gt;n22</title>
<path fill="none" stroke="black" d="M201.217,-545.641C201.346,-535.297 201.513,-521.941 201.66,-510.221"/>
<polygon fill="black" stroke="black" points="205.162,-510.093 201.787,-500.05 198.162,-510.006 205.162,-510.093"/>
</g>
<!-- n20 -->
<g id="node9" class="node"><title>n20</title>
<defs>
<linearGradient id="l_7" gradientUnits="userSpaceOnUse" x1="172" y1="-648" x2="226" y2="-648" >
<stop offset="0" style="stop-color:bisque;stop-opacity:1.;"/>
<stop offset="1" style="stop-color:brown;stop-opacity:1.;"/>
</linearGradient>
</defs>
<polygon fill="url(#l_7)" stroke="black" points="226,-666 172,-666 172,-630 226,-630 226,-666"/>
<text text-anchor="middle" x="199" y="-644.3" font-family="Times,serif" font-size="14.00">n20</text>
</g>
<!-- n20&#45;&gt;n21 -->
<g id="edge22" class="edge"><title>n20&#45;&gt;n21</title>
<path fill="none" stroke="black" d="M199.424,-629.61C199.688,-618.774 200.034,-604.601 200.334,-592.291"/>
<polygon fill="black" stroke="black" points="203.838,-592.166 200.583,-582.084 196.84,-591.995 203.838,-592.166"/>
</g>
<!-- n19 -->
<g id="node10" class="node"><title>n19</title>
<defs>
<linearGradient id="l_8" gradientUnits="userSpaceOnUse" x1="170.928" y1="-734" x2="219.072" y2="-734" >
<stop offset="0" style="stop-color:bisque;stop-opacity:1.;"/>
<stop offset="1" style="stop-color:brown;stop-opacity:1.;"/>
</linearGradient>
</defs>
<ellipse fill="url(#l_8)" stroke="black" cx="195" cy="-734" rx="24.0718" ry="24.0958"/>
<text text-anchor="middle" x="195" y="-730.3" font-family="Times,serif" font-size="14.00">n19</text>
</g>
<!-- n19&#45;&gt;n20 -->
<g id="edge21" class="edge"><title>n19&#45;&gt;n20</title>
<path fill="none" stroke="black" d="M196.114,-709.601C196.607,-699.261 197.189,-687.036 197.701,-676.284"/>
<polygon fill="black" stroke="black" points="201.204,-676.303 198.183,-666.147 194.212,-675.97 201.204,-676.303"/>
</g>
<!-- n18 -->
<g id="node11" class="node"><title>n18</title>
<defs>
<linearGradient id="l_9" gradientUnits="userSpaceOnUse" x1="160.987" y1="-812" x2="229.013" y2="-812" >
<stop offset="0" style="stop-color:bisque;stop-opacity:1.;"/>
<stop offset="1" style="stop-color:brown;stop-opacity:1.;"/>
</linearGradient>
</defs>
<polygon fill="url(#l_9)" stroke="black" points="195,-830 160.987,-812 195,-794 229.013,-812 195,-830"/>
<text text-anchor="middle" x="195" y="-808.3" font-family="Times,serif" font-size="14.00">n18</text>
</g>
<!-- n18&#45;&gt;n19 -->
<g id="edge20" class="edge"><title>n18&#45;&gt;n19</title>
<path fill="none" stroke="black" d="M195,-793.754C195,-786.2 195,-777.066 195,-768.276"/>
<polygon fill="black" stroke="black" points="198.5,-768.228 195,-758.228 191.5,-768.228 198.5,-768.228"/>
</g>
<!-- n17 -->
<g id="node12" class="node"><title>n17</title>
<defs>
<linearGradient id="l_10" gradientUnits="userSpaceOnUse" x1="167" y1="-884" x2="221" y2="-884" >
<stop offset="0" style="stop-color:bisque;stop-opacity:1.;"/>
<stop offset="1" style="stop-color:brown;stop-opacity:1.;"/>
</linearGradient>
</defs>
<ellipse fill="url(#l_10)" stroke="black" cx="194" cy="-884" rx="27" ry="18"/>
<text text-anchor="middle" x="194" y="-880.3" font-family="Times,serif" font-size="14.00">n17</text>
</g>
<!-- n17&#45;&gt;n18 -->
<g id="edge19" class="edge"><title>n17&#45;&gt;n18</title>
<path fill="none" stroke="black" d="M194.247,-865.697C194.357,-857.983 194.49,-848.712 194.613,-840.112"/>
<polygon fill="black" stroke="black" points="198.112,-840.153 194.756,-830.104 191.113,-840.053 198.112,-840.153"/>
</g>
<!-- n16 -->
<g id="node13" class="node"><title>n16</title>
<defs>
<linearGradient id="l_11" gradientUnits="userSpaceOnUse" x1="165.843" y1="-956" x2="220.157" y2="-956" >
<stop offset="0" style="stop-color:bisque;stop-opacity:1.;"/>
<stop offset="1" style="stop-color:brown;stop-opacity:1.;"/>
</linearGradient>
</defs>
<polygon fill="url(#l_11)" stroke="black" points="220.157,-956 206.579,-974 179.421,-974 165.843,-956 179.421,-938 206.579,-938 220.157,-956"/>
<text text-anchor="middle" x="193" y="-952.3" font-family="Times,serif" font-size="14.00">n16</text>
</g>
<!-- n16&#45;&gt;n17 -->
<g id="edge18" class="edge"><title>n16&#45;&gt;n17</title>
<path fill="none" stroke="black" d="M193.247,-937.697C193.357,-929.983 193.49,-920.712 193.613,-912.112"/>
<polygon fill="black" stroke="black" points="197.112,-912.153 193.756,-902.104 190.113,-912.053 197.112,-912.153"/>
</g>
<!-- n15 -->
<g id="node14" class="node"><title>n15</title>
<defs>
<linearGradient id="l_12" gradientUnits="userSpaceOnUse" x1="144.856" y1="-1027.25" x2="241.144" y2="-1027.25" >
<stop offset="0" style="stop-color:bisque;stop-opacity:1.;"/>
<stop offset="1" style="stop-color:brown;stop-opacity:1.;"/>
</linearGradient>
</defs>
<polygon fill="url(#l_12)" stroke="black" points="193,-1010 241.144,-1044.5 144.856,-1044.5 193,-1010"/>
<text text-anchor="middle" x="193" y="-1029.3" font-family="Times,serif" font-size="14.00">n15</text>
</g>
<!-- n15&#45;&gt;n16 -->
<g id="edge17" class="edge"><title>n15&#45;&gt;n16</title>
<path fill="none" stroke="black" d="M193,-1009.9C193,-1001.88 193,-992.724 193,-984.307"/>
<polygon fill="black" stroke="black" points="196.5,-984.183 193,-974.183 189.5,-984.183 196.5,-984.183"/>
</g>
<!-- n14 -->
<g id="node15" class="node"><title>n14</title>
<defs>
<linearGradient id="l_13" gradientUnits="userSpaceOnUse" x1="77.4139" y1="-35.7188" x2="136.586" y2="-35.7188" >
<stop offset="0" style="stop-color:bisque;stop-opacity:1.;"/>
<stop offset="1" style="stop-color:brown;stop-opacity:1.;"/>
</linearGradient>
</defs>
<polygon fill="url(#l_13)" stroke="black" points="136.586,-39.5623 107,-52 77.4139,-39.5623 88.7148,-19.4377 125.285,-19.4377 136.586,-39.5623"/>
<text text-anchor="middle" x="107" y="-30.3" font-family="Times,serif" font-size="14.00">n14</text>
</g>
<!-- n13 -->
<g id="node16" class="node"><title>n13</title>
<defs>
<linearGradient id="l_14" gradientUnits="userSpaceOnUse" x1="80" y1="-106" x2="134" y2="-106" >
<stop offset="0" style="stop-color:bisque;stop-opacity:1.;"/>
<stop offset="1" style="stop-color:brown;stop-opacity:1.;"/>
</linearGradient>
</defs>
<polygon fill="url(#l_14)" stroke="black" points="134,-124 80,-124 80,-88 134,-88 134,-124"/>
<text text-anchor="middle" x="107" y="-102.3" font-family="Times,serif" font-size="14.00">n13</text>
</g>
<!-- n13&#45;&gt;n14 -->
<g id="edge15" class="edge"><title>n13&#45;&gt;n14</title>
<path fill="none" stroke="black" d="M107,-87.6966C107,-79.9827 107,-70.7125 107,-62.1124"/>
<polygon fill="black" stroke="black" points="110.5,-62.1043 107,-52.1043 103.5,-62.1044 110.5,-62.1043"/>
</g>
<!-- n12 -->
<g id="node17" class="node"><title>n12</title>
<defs>
<linearGradient id="l_15" gradientUnits="userSpaceOnUse" x1="80" y1="-178.891" x2="134" y2="-178.891" >
<stop offset="0" style="stop-color:bisque;stop-opacity:1.;"/>
<stop offset="1" style="stop-color:brown;stop-opacity:1.;"/>
</linearGradient>
</defs>
<polygon fill="url(#l_15)" stroke="black" points="134,-173.995 128.652,-189.223 107,-196 85.3477,-189.223 80,-173.995 94.9839,-161.783 119.016,-161.783 134,-173.995"/>
<text text-anchor="middle" x="107" y="-174.3" font-family="Times,serif" font-size="14.00">n12</text>
</g>
<!-- n12&#45;&gt;n13 -->
<g id="edge14" class="edge"><title>n12&#45;&gt;n13</title>
<path fill="none" stroke="black" d="M107,-161.465C107,-153.59 107,-143.788 107,-134.679"/>
<polygon fill="black" stroke="black" points="110.5,-134.461 107,-124.461 103.5,-134.461 110.5,-134.461"/>
</g>
<!-- n11 -->
<g id="node18" class="node"><title>n11</title>
<defs>
<linearGradient id="l_16" gradientUnits="userSpaceOnUse" x1="58.8563" y1="-260.75" x2="155.144" y2="-260.75" >
<stop offset="0" style="stop-color:bisque;stop-opacity:1.;"/>
<stop offset="1" style="stop-color:brown;stop-opacity:1.;"/>
</linearGradient>
</defs>
<polygon fill="url(#l_16)" stroke="black" points="107,-278 58.8563,-243.5 155.144,-243.5 107,-278"/>
<text text-anchor="middle" x="107" y="-251.3" font-family="Times,serif" font-size="14.00">n11</text>
</g>
<!-- n11&#45;&gt;n12 -->
<g id="edge13" class="edge"><title>n11&#45;&gt;n12</title>
<path fill="none" stroke="black" d="M107,-243.254C107,-233.635 107,-219.114 107,-206.308"/>
<polygon fill="black" stroke="black" points="110.5,-206.101 107,-196.101 103.5,-206.101 110.5,-206.101"/>
</g>
<!-- n10 -->
<g id="node19" class="node"><title>n10</title>
<defs>
<linearGradient id="l_17" gradientUnits="userSpaceOnUse" x1="80" y1="-332" x2="134" y2="-332" >
<stop offset="0" style="stop-color:bisque;stop-opacity:1.;"/>
<stop offset="1" style="stop-color:brown;stop-opacity:1.;"/>
</linearGradient>
</defs>
<polygon fill="url(#l_17)" stroke="black" points="134,-350 80,-350 80,-314 134,-314 134,-350"/>
<text text-anchor="middle" x="107" y="-328.3" font-family="Times,serif" font-size="14.00">n10</text>
</g>
<!-- n10&#45;&gt;n11 -->
<g id="edge12" class="edge"><title>n10&#45;&gt;n11</title>
<path fill="none" stroke="black" d="M107,-313.981C107,-306.34 107,-297.061 107,-288.188"/>
<polygon fill="black" stroke="black" points="110.5,-288.079 107,-278.079 103.5,-288.079 110.5,-288.079"/>
</g>
<!-- n9 -->
<g id="node20" class="node"><title>n9</title>
<defs>
<linearGradient id="l_18" gradientUnits="userSpaceOnUse" x1="89" y1="-404" x2="125" y2="-404" >
<stop offset="0" style="stop-color:bisque;stop-opacity:1.;"/>
<stop offset="1" style="stop-color:brown;stop-opacity:1.;"/>
</linearGradient>
</defs>
<polygon fill="url(#l_18)" stroke="black" points="125,-422 89,-422 89,-386 125,-386 125,-422"/>
<text text-anchor="middle" x="107" y="-400.3" font-family="Times,serif" font-size="14.00">n9</text>
</g>
<!-- n9&#45;&gt;n10 -->
<g id="edge11" class="edge"><title>n9&#45;&gt;n10</title>
<path fill="none" stroke="black" d="M107,-385.697C107,-377.983 107,-368.712 107,-360.112"/>
<polygon fill="black" stroke="black" points="110.5,-360.104 107,-350.104 103.5,-360.104 110.5,-360.104"/>
</g>
<!-- n8 -->
<g id="node21" class="node"><title>n8</title>
<defs>
<linearGradient id="l_19" gradientUnits="userSpaceOnUse" x1="88.7099" y1="-482" x2="127.29" y2="-482" >
<stop offset="0" style="stop-color:bisque;stop-opacity:1.;"/>
<stop offset="1" style="stop-color:brown;stop-opacity:1.;"/>
</linearGradient>
</defs>
<ellipse fill="url(#l_19)" stroke="black" cx="108" cy="-482" rx="19.2901" ry="19.4968"/>
<ellipse fill="none" stroke="black" cx="108" cy="-482" rx="23.2474" ry="23.4965"/>
<text text-anchor="middle" x="108" y="-478.3" font-family="Times,serif" font-size="14.00">n8</text>
</g>
<!-- n8&#45;&gt;n9 -->
<g id="edge10" class="edge"><title>n8&#45;&gt;n9</title>
<path fill="none" stroke="black" d="M107.7,-458.197C107.593,-450.081 107.472,-440.858 107.36,-432.397"/>
<polygon fill="black" stroke="black" points="110.858,-432.181 107.227,-422.228 103.859,-432.273 110.858,-432.181"/>
</g>
<!-- n7 -->
<g id="node22" class="node"><title>n7</title>
<defs>
<linearGradient id="l_20" gradientUnits="userSpaceOnUse" x1="81" y1="-564" x2="135" y2="-564" >
<stop offset="0" style="stop-color:bisque;stop-opacity:1.;"/>
<stop offset="1" style="stop-color:brown;stop-opacity:1.;"/>
</linearGradient>
</defs>
<polygon fill="url(#l_20)" stroke="black" points="135,-556.544 135,-571.456 119.184,-582 96.8162,-582 81,-571.456 81,-556.544 96.8162,-546 119.184,-546 135,-556.544"/>
<polygon fill="none" stroke="black" points="139,-554.403 139,-573.597 120.395,-586 95.6051,-586 77,-573.597 77,-554.403 95.6051,-542 120.395,-542 139,-554.403"/>
<text text-anchor="middle" x="108" y="-560.3" font-family="Times,serif" font-size="14.00">n7</text>
</g>
<!-- n7&#45;&gt;n8 -->
<g id="edge9" class="edge"><title>n7&#45;&gt;n8</title>
<path fill="none" stroke="black" d="M108,-541.981C108,-533.929 108,-524.54 108,-515.653"/>
<polygon fill="black" stroke="black" points="111.5,-515.561 108,-505.561 104.5,-515.561 111.5,-515.561"/>
</g>
<!-- n6 -->
<g id="node23" class="node"><title>n6</title>
<defs>
<linearGradient id="l_21" gradientUnits="userSpaceOnUse" x1="85" y1="-648" x2="139" y2="-648" >
<stop offset="0" style="stop-color:bisque;stop-opacity:1.;"/>
<stop offset="1" style="stop-color:brown;stop-opacity:1.;"/>
</linearGradient>
</defs>
<polygon fill="url(#l_21)" stroke="black" points="139,-640.544 139,-655.456 123.184,-666 100.816,-666 85,-655.456 85,-640.544 100.816,-630 123.184,-630 139,-640.544"/>
<polygon fill="none" stroke="black" points="143,-638.403 143,-657.597 124.395,-670 99.6051,-670 81,-657.597 81,-638.403 99.6051,-626 124.395,-626 143,-638.403"/>
<polygon fill="none" stroke="black" points="147,-636.263 147,-659.737 125.606,-674 98.394,-674 77,-659.737 77,-636.263 98.394,-622 125.606,-622 147,-636.263"/>
<text text-anchor="middle" x="112" y="-644.3" font-family="Times,serif" font-size="14.00">n6</text>
</g>
<!-- n6&#45;&gt;n7 -->
<g id="edge8" class="edge"><title>n6&#45;&gt;n7</title>
<path fill="none" stroke="black" d="M110.778,-621.952C110.38,-613.782 109.932,-604.61 109.515,-596.054"/>
<polygon fill="black" stroke="black" points="113.009,-595.848 109.026,-586.031 106.017,-596.189 113.009,-595.848"/>
</g>
<!-- n5 -->
<g id="node24" class="node"><title>n5</title>
<defs>
<linearGradient id="l_22" gradientUnits="userSpaceOnUse" x1="88.6385" y1="-734" x2="143.361" y2="-734" >
<stop offset="0" style="stop-color:bisque;stop-opacity:1.;"/>
<stop offset="1" style="stop-color:brown;stop-opacity:1.;"/>
</linearGradient>
</defs>
<polygon fill="url(#l_22)" stroke="black" points="100.02,-716 131.98,-716 143.361,-752 88.6385,-752 100.02,-716"/>
<text text-anchor="middle" x="116" y="-730.3" font-family="Times,serif" font-size="14.00">n5</text>
</g>
<!-- n5&#45;&gt;n6 -->
<g id="edge7" class="edge"><title>n5&#45;&gt;n6</title>
<path fill="none" stroke="black" d="M115.171,-715.595C114.738,-706.491 114.191,-695.006 113.674,-684.149"/>
<polygon fill="black" stroke="black" points="117.164,-683.853 113.192,-674.03 110.172,-684.186 117.164,-683.853"/>
</g>
<!-- n4 -->
<g id="node25" class="node"><title>n4</title>
<defs>
<linearGradient id="l_23" gradientUnits="userSpaceOnUse" x1="89" y1="-810.281" x2="143" y2="-810.281" >
<stop offset="0" style="stop-color:bisque;stop-opacity:1.;"/>
<stop offset="1" style="stop-color:brown;stop-opacity:1.;"/>
</linearGradient>
</defs>
<polygon fill="url(#l_23)" stroke="black" points="89,-806.438 116,-794 143,-806.438 142.975,-826.562 89.0252,-826.562 89,-806.438"/>
<text text-anchor="middle" x="116" y="-808.3" font-family="Times,serif" font-size="14.00">n4</text>
</g>
<!-- n4&#45;&gt;n5 -->
<g id="edge6" class="edge"><title>n4&#45;&gt;n5</title>
<path fill="none" stroke="black" d="M116,-793.754C116,-784.523 116,-772.935 116,-762.495"/>
<polygon fill="black" stroke="black" points="119.5,-762.177 116,-752.177 112.5,-762.177 119.5,-762.177"/>
</g>
<!-- n3 -->
<g id="node26" class="node"><title>n3</title>
<defs>
<linearGradient id="l_24" gradientUnits="userSpaceOnUse" x1="88.6385" y1="-884" x2="143.361" y2="-884" >
<stop offset="0" style="stop-color:bisque;stop-opacity:1.;"/>
<stop offset="1" style="stop-color:brown;stop-opacity:1.;"/>
</linearGradient>
</defs>
<polygon fill="url(#l_24)" stroke="black" points="116,-902 88.6385,-884 116,-866 143.361,-884 116,-902"/>
<polyline fill="none" stroke="black" points="97.759,-890 97.759,-878 "/>
<polyline fill="none" stroke="black" points="106.88,-872 125.12,-872 "/>
<polyline fill="none" stroke="black" points="134.241,-878 134.241,-890 "/>
<polyline fill="none" stroke="black" points="125.12,-896 106.88,-896 "/>
<text text-anchor="middle" x="116" y="-880.3" font-family="Times,serif" font-size="14.00">n3</text>
</g>
<!-- n3&#45;&gt;n4 -->
<g id="edge5" class="edge"><title>n3&#45;&gt;n4</title>
<path fill="none" stroke="black" d="M116,-865.697C116,-856.99 116,-846.3 116,-836.829"/>
<polygon fill="black" stroke="black" points="119.5,-836.824 116,-826.825 112.5,-836.825 119.5,-836.824"/>
</g>
<!-- n2 -->
<g id="node27" class="node"><title>n2</title>
<defs>
<linearGradient id="l_25" gradientUnits="userSpaceOnUse" x1="93" y1="-956" x2="129" y2="-956" >
<stop offset="0" style="stop-color:bisque;stop-opacity:1.;"/>
<stop offset="1" style="stop-color:brown;stop-opacity:1.;"/>
</linearGradient>
</defs>
<polygon fill="url(#l_25)" stroke="black" points="129,-974 93,-974 93,-938 129,-938 129,-974"/>
<polyline fill="none" stroke="black" points="105,-974 93,-962 "/>
<polyline fill="none" stroke="black" points="93,-950 105,-938 "/>
<polyline fill="none" stroke="black" points="117,-938 129,-950 "/>
<polyline fill="none" stroke="black" points="129,-962 117,-974 "/>
<text text-anchor="middle" x="111" y="-952.3" font-family="Times,serif" font-size="14.00">n2</text>
</g>
<!-- n2&#45;&gt;n3 -->
<g id="edge4" class="edge"><title>n2&#45;&gt;n3</title>
<path fill="none" stroke="black" d="M112.236,-937.697C112.795,-929.868 113.469,-920.435 114.091,-911.728"/>
<polygon fill="black" stroke="black" points="117.591,-911.846 114.813,-901.622 110.609,-911.347 117.591,-911.846"/>
</g>
<!-- n1 -->
<g id="node28" class="node"><title>n1</title>
<defs>
<linearGradient id="l_26" gradientUnits="userSpaceOnUse" x1="87.7526" y1="-1033" x2="126.247" y2="-1033" >
<stop offset="0" style="stop-color:bisque;stop-opacity:1.;"/>
<stop offset="1" style="stop-color:brown;stop-opacity:1.;"/>
</linearGradient>
</defs>
<ellipse fill="url(#l_26)" stroke="black" cx="107" cy="-1033" rx="19.2474" ry="19.4965"/>
<polyline fill="none" stroke="black" points="119.567,-1047.62 94.4334,-1047.62 "/>
<polyline fill="none" stroke="black" points="119.567,-1018.38 94.4334,-1018.38 "/>
<text text-anchor="middle" x="107" y="-1029.3" font-family="Times,serif" font-size="14.00">n1</text>
</g>
<!-- n1&#45;&gt;n2 -->
<g id="edge3" class="edge"><title>n1&#45;&gt;n2</title>
<path fill="none" stroke="black" d="M107.989,-1013.46C108.461,-1004.6 109.036,-993.834 109.556,-984.084"/>
<polygon fill="black" stroke="black" points="113.053,-984.216 110.091,-974.044 106.063,-983.843 113.053,-984.216"/>
</g>
<!-- x1 -->
<g id="node29" class="node"><title>x1</title>
<defs>
<linearGradient id="l_27" gradientUnits="userSpaceOnUse" x1="16" y1="-1033" x2="70" y2="-1033" >
<stop offset="0" style="stop-color:bisque;stop-opacity:1.;"/>
<stop offset="1" style="stop-color:brown;stop-opacity:1.;"/>
</linearGradient>
</defs>
<polygon fill="url(#l_27)" stroke="black" points="64,-1051 16,-1051 16,-1015 70,-1015 70,-1045 64,-1051"/>
<polyline fill="none" stroke="black" points="64,-1051 64,-1045 "/>
<polyline fill="none" stroke="black" points="70,-1045 64,-1045 "/>
<text text-anchor="middle" x="43" y="-1029.3" font-family="Times,serif" font-size="14.00">x1</text>
</g>
<!-- x2 -->
<g id="node30" class="node"><title>x2</title>
<defs>
<linearGradient id="l_28" gradientUnits="userSpaceOnUse" x1="16" y1="-958" x2="70" y2="-958" >
<stop offset="0" style="stop-color:bisque;stop-opacity:1.;"/>
<stop offset="1" style="stop-color:brown;stop-opacity:1.;"/>
</linearGradient>
</defs>
<polygon fill="url(#l_28)" stroke="black" points="70,-974 28,-974 28,-978 16,-978 16,-938 70,-938 70,-974"/>
<polyline fill="none" stroke="black" points="16,-974 28,-974 "/>
<text text-anchor="middle" x="43" y="-952.3" font-family="Times,serif" font-size="14.00">x2</text>
</g>
<!-- x1&#45;&gt;x2 -->
<g id="edge30" class="edge"><title>x1&#45;&gt;x2</title>
<path fill="none" stroke="black" d="M43,-1014.98C43,-1005.94 43,-994.597 43,-984.351"/>
<polygon fill="black" stroke="black" points="46.5001,-984.211 43,-974.211 39.5001,-984.211 46.5001,-984.211"/>
</g>
<!-- x3 -->
<g id="node31" class="node"><title>x3</title>
<defs>
<linearGradient id="l_29" gradientUnits="userSpaceOnUse" x1="16" y1="-886" x2="70" y2="-886" >
<stop offset="0" style="stop-color:bisque;stop-opacity:1.;"/>
<stop offset="1" style="stop-color:brown;stop-opacity:1.;"/>
</linearGradient>
</defs>
<polygon fill="url(#l_29)" stroke="black" points="70,-902 67,-906 46,-906 43,-902 16,-902 16,-866 70,-866 70,-902"/>
<text text-anchor="middle" x="43" y="-880.3" font-family="Times,serif" font-size="14.00">x3</text>
</g>
<!-- x2&#45;&gt;x3 -->
<g id="edge31" class="edge"><title>x2&#45;&gt;x3</title>
<path fill="none" stroke="black" d="M43,-937.697C43,-929.983 43,-920.712 43,-912.112"/>
<polygon fill="black" stroke="black" points="46.5001,-912.104 43,-902.104 39.5001,-912.104 46.5001,-912.104"/>
</g>
<!-- x4 -->
<g id="node32" class="node"><title>x4</title>
<defs>
<linearGradient id="l_30" gradientUnits="userSpaceOnUse" x1="16" y1="-812" x2="70" y2="-812" >
<stop offset="0" style="stop-color:bisque;stop-opacity:1.;"/>
<stop offset="1" style="stop-color:brown;stop-opacity:1.;"/>
</linearGradient>
</defs>
<polygon fill="url(#l_30)" stroke="black" points="70,-830 20,-830 16,-826 16,-794 66,-794 70,-798 70,-830"/>
<polyline fill="none" stroke="black" points="66,-826 16,-826 "/>
<polyline fill="none" stroke="black" points="66,-826 66,-794 "/>
<polyline fill="none" stroke="black" points="66,-826 70,-830 "/>
<text text-anchor="middle" x="43" y="-808.3" font-family="Times,serif" font-size="14.00">x4</text>
</g>
<!-- x3&#45;&gt;x4 -->
<g id="edge32" class="edge"><title>x3&#45;&gt;x4</title>
<path fill="none" stroke="black" d="M43,-865.697C43,-857.983 43,-848.712 43,-840.112"/>
<polygon fill="black" stroke="black" points="46.5001,-840.104 43,-830.104 39.5001,-840.104 46.5001,-840.104"/>
</g>
<!-- x5 -->
<g id="node33" class="node"><title>x5</title>
<defs>
<linearGradient id="l_31" gradientUnits="userSpaceOnUse" x1="12" y1="-734" x2="70" y2="-734" >
<stop offset="0" style="stop-color:bisque;stop-opacity:1.;"/>
<stop offset="1" style="stop-color:brown;stop-opacity:1.;"/>
</linearGradient>
</defs>
<polygon fill="url(#l_31)" stroke="black" points="70,-752 16,-752 16,-748 12,-748 12,-744 16,-744 16,-724 12,-724 12,-720 16,-720 16,-716 70,-716 70,-752"/>
<polyline fill="none" stroke="black" points="16,-748 20,-748 20,-744 16,-744 "/>
<polyline fill="none" stroke="black" points="16,-724 20,-724 20,-720 16,-720 "/>
<text text-anchor="middle" x="43" y="-730.3" font-family="Times,serif" font-size="14.00">x5</text>
</g>
<!-- x4&#45;&gt;x5 -->
<g id="edge33" class="edge"><title>x4&#45;&gt;x5</title>
<path fill="none" stroke="black" d="M43,-793.754C43,-784.523 43,-772.935 43,-762.495"/>
<polygon fill="black" stroke="black" points="46.5001,-762.177 43,-752.177 39.5001,-762.177 46.5001,-762.177"/>
</g>
</g>
</svg>
