<?xml version="1.0" encoding="UTF-8" standalone="no"?>
<?xml-stylesheet href="stylesheet" type="text/css"?>
<!DOCTYPE svg PUBLIC "-//W3C//DTD SVG 1.1//EN"
 "http://www.w3.org/Graphics/SVG/1.1/DTD/svg11.dtd">
<!-- Generated by graphviz version 2.27.0 (20110318.0136)
 -->
<!-- Title: G Pages: 1 -->
<svg width="509pt" height="192pt"
 viewBox="0.00 0.00 509.23 192.00" xmlns="http://www.w3.org/2000/svg" xmlns:xlink="http://www.w3.org/1999/xlink">
<g id="graph1" class="graph" transform="scale(1 1) rotate(0) translate(4 188)">
<title>G</title>
<a xlink:href="http://www.graphviz.org/doc/info/output.html" xlink:title="output">
<polygon fill="white" stroke="white" points="-4,5 -4,-188 506.226,-188 506.226,5 -4,5"/>
<text text-anchor="middle" x="250.613" y="-7.8" font-family="Times,serif" font-size="14.00">output</text>
</a>
<g id="graph2" class="cluster"><title>cluster0</title>
<a xlink:href="http://www.graphviz.org/doc/info/arrows.html" xlink:title="arrows">
<polygon fill="yellow" stroke="black" points="100,-31 100,-106 289,-106 289,-31 100,-31"/>
<text text-anchor="middle" x="194.5" y="-90.8" font-family="Times,serif" font-size="14.00">arrows</text>
</a>
</g>
<!-- lang -->
<g id="node1" class="node"><title>lang</title>
<a xlink:href="http://www.graphviz.org/doc/info/lang.html" xlink:title="lang">
<ellipse fill="none" stroke="black" cx="234" cy="-166" rx="27" ry="18"/>
<text text-anchor="middle" x="234" y="-162.3" font-family="Times,serif" font-size="14.00">lang</text>
</a>
</g>
<!-- colors -->
<g id="node2" class="node"><title>colors</title>
<a xlink:href="http://www.graphviz.org/doc/info/output.html" xlink:title="&lt;TABLE&gt;">
<ellipse fill="lightblue" stroke="black" cx="45" cy="-57" rx="44.8843" ry="25"/>
</a>
<a xlink:href="http://www.graphviz.org/doc/info/colors.html" xlink:title="&lt;TABLE&gt;">
<polygon fill="none" stroke="black" points="21,-43.5 21,-70.5 69,-70.5 69,-43.5 21,-43.5"/>
<polygon fill="green" stroke="green" points="24,-46 24,-67 66,-67 66,-46 24,-46"/>
<polygon fill="none" stroke="black" points="24,-46 24,-67 66,-67 66,-46 24,-46"/>
<text text-anchor="start" x="27.5" y="-53.3" font-family="Times,serif" font-size="14.00">colors</text>
</a>
<a xlink:href="http://www.graphviz.org/doc/info/output.html" xlink:title="&lt;TABLE&gt;">
</a>
</g>
<!-- lang&#45;&gt;colors -->
<g id="edge5" class="edge"><title>lang&#45;&gt;colors</title>
<a xlink:href="lang-&gt;colors" xlink:title="self">
<path fill="none" stroke="black" d="M210.038,-157.628C181.47,-148.21 132.953,-130.187 96,-106 87.6323,-100.523 79.377,-93.6105 72.0255,-86.7504"/>
<polygon fill="black" stroke="black" points="74.0568,-83.8448 64.4407,-79.3973 69.1844,-88.8708 74.0568,-83.8448"/>
</a>
</g>
<!-- command -->
<g id="node4" class="node"><title>command</title>
<a xlink:href="http://www.graphviz.org/doc/info/command.html" xlink:title="command">
<ellipse fill="grey" stroke="black" cx="234" cy="-57" rx="46.1964" ry="18"/>
<text text-anchor="middle" x="234" y="-53.3" font-family="Times,serif" font-size="14.00">command</text>
</a>
</g>
<!-- lang&#45;&gt;command -->
<g id="edge3" class="edge"><title>lang&#45;&gt;command</title>
<a xlink:href="http://www.graphviz.org/doc/info/shapes.html">
<path fill="none" stroke="black" d="M234,-147.809C234,-130.961 234,-105.018 234,-85.3394"/>
<polygon fill="black" stroke="black" points="237.5,-85.1487 234,-75.1487 230.5,-85.1488 237.5,-85.1487"/>
</a>
</g>
<!-- size -->
<g id="node9" class="node"><title>size</title>
<ellipse fill="none" stroke="black" cx="326" cy="-57" rx="27" ry="18"/>
<text text-anchor="middle" x="326" y="-53.3" font-family="Times,serif" font-size="14.00">size</text>
</g>
<!-- lang&#45;&gt;size -->
<g id="edge7" class="edge"><title>lang&#45;&gt;size</title>
<a xlink:href="headurl" xlink:title="headurl">
<path fill="none" stroke="black" d="M249.322,-151.158C261.713,-139.626 279.29,-122.482 293,-106 299.108,-98.6566 305.202,-90.1978 310.459,-82.4463"/>
<polygon fill="black" stroke="black" points="313.389,-84.3613 315.997,-74.0923 307.554,-80.4938 313.389,-84.3613"/>
</a>
<a xlink:href="headsize" xlink:title="size">
<text text-anchor="middle" x="314.512" y="-80.2815" font-family="Times,serif" font-size="14.00">size</text>
</a>
</g>
<!-- name -->
<g id="node5" class="node"><title>name</title>
<a xlink:href="G name" xlink:title="name">
<ellipse fill="none" stroke="black" cx="139" cy="-57" rx="30.3206" ry="18"/>
<text text-anchor="middle" x="139" y="-53.3" font-family="Times,serif" font-size="14.00">name</text>
</a>
</g>
<!-- word -->
<g id="node10" class="node"><title>word</title>
<ellipse fill="none" stroke="black" cx="377" cy="-166" rx="29.3722" ry="18"/>
<text text-anchor="middle" x="377" y="-162.3" font-family="Times,serif" font-size="14.00">word</text>
</g>
<!-- word&#45;&gt;size -->
<g id="edge9" class="edge"><title>word&#45;&gt;size</title>
<a xlink:href="tailurl">
<path fill="none" stroke="black" d="M369.031,-148.281C360.749,-130.905 347.685,-103.497 338.123,-83.4338"/>
<polygon fill="black" stroke="black" points="341.208,-81.7721 333.746,-74.251 334.889,-84.784 341.208,-81.7721"/>
</a>
<a xlink:href="tailsize" xlink:title="size">
<text text-anchor="middle" x="361.317" y="-138.218" font-family="Times,serif" font-size="14.00">size</text>
</a>
</g>
<!-- garf -->
<g id="node13" class="node"><title>garf</title>
<ellipse fill="none" stroke="black" cx="398" cy="-57" rx="27" ry="18"/>
<text text-anchor="middle" x="398" y="-53.3" font-family="Times,serif" font-size="14.00">garf</text>
</g>
<!-- word&#45;&gt;garf -->
<g id="edge11" class="edge"><title>word&#45;&gt;garf</title>
<a xlink:href="labelurl" xlink:title="garf">
<path fill="none" stroke="black" d="M380.374,-147.809C383.696,-130.883 388.819,-104.778 392.688,-85.0665"/>
<polygon fill="black" stroke="black" points="396.143,-85.6356 394.634,-75.1487 389.274,-84.2875 396.143,-85.6356"/>
</a>
<a xlink:href="garf" xlink:title="garf">
<text text-anchor="middle" x="397.5" y="-118.3" font-family="Times,serif" font-size="14.00">garf</text>
</a>
</g>
<!-- line -->
<g id="node14" class="node"><title>line</title>
<ellipse fill="none" stroke="black" cx="470" cy="-166" rx="27" ry="18"/>
<text text-anchor="middle" x="470" y="-162.3" font-family="Times,serif" font-size="14.00">line</text>
</g>
<!-- all -->
<g id="node16" class="node"><title>all</title>
<ellipse fill="none" stroke="black" cx="470" cy="-57" rx="27" ry="18"/>
<text text-anchor="middle" x="470" y="-53.3" font-family="Times,serif" font-size="14.00">all</text>
</g>
<!-- line&#45;&gt;all -->
<g id="edge13" class="edge"><title>line&#45;&gt;all</title>
<a xlink:href="labelurl" xlink:title="edgetooltip">
<path fill="none" stroke="black" d="M470,-147.809C470,-130.961 470,-105.018 470,-85.3394"/>
<polygon fill="black" stroke="black" points="473.5,-85.1487 470,-75.1487 466.5,-85.1488 473.5,-85.1487"/>
</a>
<a xlink:href="garf" xlink:title="garf">
<text text-anchor="middle" x="481.5" y="-118.3" font-family="Times,serif" font-size="14.00">garf</text>
</a>
<a xlink:href="headURL" xlink:title="headtooltip">
<text text-anchor="middle" x="474.226" y="-80.5118" font-family="Times,serif" font-size="14.00">headlabel</text>
</a>
<a xlink:href="tailURL" xlink:title="tailtooltip">
<text text-anchor="middle" x="465.774" y="-135.046" font-family="Times,serif" font-size="14.00">taillabel</text>
</a>
</g>
</g>
</svg>
